<svg id="Ebene_1" data-name="Ebene 1" xmlns="http://www.w3.org/2000/svg" viewBox="0 0 454.31 102.43"><defs><clipPath id="clip-path" transform="translate(-6.34 -6.92)"><path fill="none" d="M6.34 6.92h454.31v102.43H6.34z"/></clipPath><style>.cls-2{clip-path:url(#clip-path)}.cls-3{fill:#de3314}</style></defs><g class="cls-2"><path class="cls-3" d="M207.75 49.15h18.67l.23 1c.92 4.1 3.84 6.22 9.38 6.13 5.27-.07 7.71-2.17 7.71-4.61 0-2.22-1.51-3.42-8.27-5.26l-9.26-2.91c-11.42-3.63-16.1-9.08-16.33-17-.32-10 7.32-17.76 22.61-18.81 1.1-.07 2.21-.11 3.3-.13a36 36 0 019.41 1.11c8.73 2.29 13.17 7.66 14.24 15.58l.32 2.55H242.3a7.39 7.39 0 00-.82-1.75c-1.07-1.94-2.55-3.29-6-3.72-2.74-.27-3.71 0-4.9.49a4.19 4.19 0 00-2.42 3.27c-.06 1.41.89 2.28 4.61 3.35l7.89 2c.89.23 1.77.48 2.65.76 10.46 3.23 14 5.68 16.79 10.51a17.51 17.51 0 012.34 8.55c.12 10.61-8 18.88-23.2 20.42a46.52 46.52 0 01-4.73.21c-15.79-.09-25.89-9.33-26.63-19.26zM50.31 39.15c0 9.27-3.88 16.78-12.41 16.78-8 0-12.42-7.51-12.42-16.78s3.95-16.77 12.42-16.77c8.73 0 12.41 7.51 12.41 16.77m19.1 0q-.07-14.24-8.59-22.94t-22.94-9q-14.3.17-22.73 9-8.71 8.65-8.81 22.89.09 14.15 8.81 22.9 8.43 8.86 22.73 9 14.48-.17 22.94-9 8.5-8.7 8.59-22.85M440.07 28.75a6.15 6.15 0 01-6.32 6H422V22.44h11.38c4.12 0 6.7 2.72 6.7 6.29m20.58 40.62L460 68a18.1 18.1 0 01-.86-4.17l-.67-6.6c-.07-.84-.17-1.67-.28-2.52-1-7.67-3.61-11.42-7.25-12.9l-1.5-.62 2-1.4a16.69 16.69 0 007.23-14.14c-.07-9.92-7-16.66-18.5-17.12-2.76-.1-5.81-.16-9.42-.16H403.8v61h18.35V47.94h8.22c5.57 0 8.37 2.48 9.66 8.68a17.56 17.56 0 01.26 1.93c.23 3.65.32 4.51.41 5.23a19.46 19.46 0 00.89 4.26l.48 1.31z" transform="translate(-6.34 -6.92)"/></g><path class="cls-3" d="M332.65 62.45V1.5h51.9l.01 15.25h-33.2v7.23h28.93v14.2h-28.98v8.13h34.6v16.14h-53.26zM264.93 62.45L264.9 1.5h18.03l18.6 31.4.03-31.4h18.08v60.95h-18.03l-18.4-31.98-.04 31.98h-18.24zM138.12 62.45V1.5h18.58v20.95h17.5V1.5h18.54v60.95h-18.55V38.5h-17.48v23.95h-18.59z"/><g class="cls-2"><path d="M430.4 109.29h2.93V90.05h.67l19.23 19.24h5v-22h-2.93v19.29h-.68l-19.34-19.29h-4.88zm-13.48 0v-2.58h-18.65v-7.54h17.84v-2.58h-17.84v-6.72h18.63v-2.58h-21.56v22zm-56.59-19.42h11c2.75.06 4.45.12 5.1.2a3.35 3.35 0 011.62.61 1.83 1.83 0 01.67 1.1 12.05 12.05 0 01.17 2.41 9.86 9.86 0 01-.19 2.28 2.16 2.16 0 01-.7 1.17 3.13 3.13 0 01-1.66.66c-.65.08-2.32.12-5 .13h-11zm0 19.42V101h15.11a13.92 13.92 0 003-.34 4.71 4.71 0 001.84-1 4.08 4.08 0 001.25-2 12.93 12.93 0 00.38-3.51 10.12 10.12 0 00-.71-4.28 3.87 3.87 0 00-1.31-1.51 4.53 4.53 0 00-1.93-.75q-1.12-.14-6.61-.26H357.4v22zm-53.05 0h2.93V90h1.29l12.41 19.27h2.38L338.57 90h1.23v19.27h2.93v-22h-5.9l-11.74 18.65-11.94-18.63h-5.87zm-40.44-11.18c0 3.11.09 5.12.17 6a6.32 6.32 0 00.61 2.31 4.47 4.47 0 003.19 2.45 16.34 16.34 0 002.4.33c.73 0 3 .08 6.65.13q6.33-.13 7.95-.32a6.8 6.8 0 002.74-.85 5 5 0 002.11-4c.08-1.12.14-3.14.16-6.07v-10.8h-2.93v10.82c0 2.81-.06 4.63-.12 5.46a3.19 3.19 0 01-.62 2 3 3 0 01-1.86.82 62.42 62.42 0 01-8.12.35 60.28 60.28 0 01-6.59-.27 3.56 3.56 0 01-2-.74 2.87 2.87 0 01-.73-1.82c-.06-.66-.09-2.58-.09-5.77V87.29h-2.94zm-34.79-8.24h11c2.75.06 4.45.12 5.1.2a3.35 3.35 0 011.62.61 1.83 1.83 0 01.67 1.1 11.33 11.33 0 01.17 2.41 9.86 9.86 0 01-.19 2.28 2.21 2.21 0 01-.69 1.17 3.19 3.19 0 01-1.66.66c-.66.08-2.33.12-5 .13h-11zm0 19.42V101h15.11a13.92 13.92 0 003-.34 4.64 4.64 0 001.84-1 4.08 4.08 0 001.25-2 12.93 12.93 0 00.38-3.51 10.12 10.12 0 00-.71-4.28 3.87 3.87 0 00-1.31-1.51 4.53 4.53 0 00-1.93-.75q-1.12-.14-6.61-.26h-13.96v22zm-16.42 0v-2.58H197v-7.54h17.84v-2.58H197v-6.72h18.63v-2.58h-21.57v22zm-71.69 0h2.93V90h1.29l12.41 19.27H163L175.23 90h1.22v19.27h2.94v-22h-5.9l-11.75 18.65-11.94-18.63h-5.86zm-36.51-19.42h10.78c2.65 0 4.46 0 5.42.15a4.33 4.33 0 012.12.63q1.05.73 1 3.24c0 1.93-.38 3.14-1.13 3.64a4.45 4.45 0 01-2 .6c-.81.08-2.64.12-5.5.12h-10.69zm0 19.42v-8.46h15.12a14.35 14.35 0 011.45.17 2.66 2.66 0 012.36 2.45q.12 1 .12 3.72v2.11h2.93v-3.13a24 24 0 00-.18-3.7 3.15 3.15 0 00-.8-1.61 4 4 0 00-2.26-1.1 4.85 4.85 0 002.68-1.34 3.37 3.37 0 00.74-1.58 15 15 0 00.21-2.9 9 9 0 00-.7-3.91 4.54 4.54 0 00-3.77-2.45q-1.55-.21-7.12-.28H104.5v22zm-29-25.1h4.27v-2.61h-4.25zm-7.15 0h4.23v-2.61H71.3zm-1.73 17.88l7-12.2h1.17l6.85 12.2zm22.24 7.22l-12.44-22h-4.67l-12.47 22h3.32l2.62-4.64h17.79l2.61 4.64zm-73.31 0h5l8.36-18.8 8 18.8h4.95l10.38-22H52l-9.14 19.53H42l-8.32-19.53H30l-8.6 19.53h-.92l-8.89-19.53H8.41z" transform="translate(-6.34 -6.92)" fill="#fff"/><path class="cls-3" d="M134.59 29l.31 1.93h-18.18l-.34-1.41a9.94 9.94 0 00-9.83-7.33c-6.29 0-11.86 6-12.11 15.59-.29 11.09 5.6 17.46 12.43 17.43a9.52 9.52 0 005.4-1.75 10.07 10.07 0 004.2-6.48l.26-1.52h18.73s-.1.93-.25 1.84-.34 1.9-.34 1.9c-2.26 12.44-12.23 21.17-27.14 21.72-17.39.59-30.95-11.7-31.73-30.18-.85-18 10.34-31.56 27.23-33.6a30.75 30.75 0 014.29-.21c14 .21 24.73 9.29 27.12 22" transform="translate(-6.34 -6.92)"/></g></svg>